<mxfile host="app.diagrams.net" modified="2022-05-23T14:31:57.355Z" agent="5.0 (Macintosh; Intel Mac OS X 10_15_7) AppleWebKit/537.36 (KHTML, like Gecko) Chrome/101.0.4951.64 Safari/537.36" etag="lx5iAYUCYALpeksYrLr_" version="18.1.1" type="github">
  <diagram id="C5RBs43oDa-KdzZeNtuy" name="Page-1">
    <mxGraphModel dx="1426" dy="700" grid="1" gridSize="10" guides="1" tooltips="1" connect="1" arrows="1" fold="1" page="1" pageScale="1" pageWidth="827" pageHeight="1169" math="0" shadow="0">
      <root>
        <mxCell id="WIyWlLk6GJQsqaUBKTNV-0" />
        <mxCell id="WIyWlLk6GJQsqaUBKTNV-1" parent="WIyWlLk6GJQsqaUBKTNV-0" />
        <mxCell id="zkfFHV4jXpPFQw0GAbJ--0" value="Proveedor" style="swimlane;fontStyle=3;align=center;verticalAlign=top;childLayout=stackLayout;horizontal=1;startSize=26;horizontalStack=0;resizeParent=1;resizeLast=0;collapsible=1;marginBottom=0;rounded=0;shadow=0;strokeWidth=1;" parent="WIyWlLk6GJQsqaUBKTNV-1" vertex="1">
          <mxGeometry x="180" y="120" width="160" height="210" as="geometry">
            <mxRectangle x="230" y="140" width="160" height="26" as="alternateBounds" />
          </mxGeometry>
        </mxCell>
        <mxCell id="zkfFHV4jXpPFQw0GAbJ--1" value="id&#xa;nombre&#xa;calle&#xa;numero&#xa;piso&#xa;puerta&#xa;ciudad&#xa;codigo postal&#xa;pais&#xa;telefono&#xa;fax&#xa;nif&#xa;" style="text;align=left;verticalAlign=top;spacingLeft=4;spacingRight=4;overflow=hidden;rotatable=0;points=[[0,0.5],[1,0.5]];portConstraint=eastwest;" parent="zkfFHV4jXpPFQw0GAbJ--0" vertex="1">
          <mxGeometry y="26" width="160" height="184" as="geometry" />
        </mxCell>
        <mxCell id="ToUNc8PX9tKTwWp0SVSs-0" value="&lt;b&gt;Òptica Cul d&#39;Ampolla&lt;/b&gt;" style="text;html=1;strokeColor=#6c8ebf;fillColor=#dae8fc;align=center;verticalAlign=middle;whiteSpace=wrap;rounded=0;" parent="WIyWlLk6GJQsqaUBKTNV-1" vertex="1">
          <mxGeometry x="305" y="40" width="190" height="40" as="geometry" />
        </mxCell>
        <mxCell id="ToUNc8PX9tKTwWp0SVSs-4" value="Clientes&#xa;" style="swimlane;fontStyle=3;align=center;verticalAlign=top;childLayout=stackLayout;horizontal=1;startSize=26;horizontalStack=0;resizeParent=1;resizeLast=0;collapsible=1;marginBottom=0;rounded=0;shadow=0;strokeWidth=1;" parent="WIyWlLk6GJQsqaUBKTNV-1" vertex="1">
          <mxGeometry x="460" y="120" width="160" height="310" as="geometry">
            <mxRectangle x="550" y="140" width="160" height="26" as="alternateBounds" />
          </mxGeometry>
        </mxCell>
        <mxCell id="ToUNc8PX9tKTwWp0SVSs-5" value="id&#xa;nombre&#xa;gafas&#xa;    idgafas&#xa;    idproveedor&#xa;    marca&#xa;    graduacion_izq&#xa;    graduacion_der&#xa;    montura&#xa;    color_montura&#xa;    color_vidrio&#xa;    precio&#xa;    fecha_venta&#xa;    empleado_venta&#xa;direccion&#xa;telefono&#xa;correo_electronico&#xa;fecha_registro&#xa;recomendacion&#xa;&#xa;" style="text;align=left;verticalAlign=top;spacingLeft=4;spacingRight=4;overflow=hidden;rotatable=0;points=[[0,0.5],[1,0.5]];portConstraint=eastwest;" parent="ToUNc8PX9tKTwWp0SVSs-4" vertex="1">
          <mxGeometry y="26" width="160" height="284" as="geometry" />
        </mxCell>
        <mxCell id="ToUNc8PX9tKTwWp0SVSs-12" value="" style="endArrow=classic;html=1;rounded=0;edgeStyle=orthogonalEdgeStyle;" parent="WIyWlLk6GJQsqaUBKTNV-1" edge="1">
          <mxGeometry width="50" height="50" relative="1" as="geometry">
            <mxPoint x="620" y="263" as="sourcePoint" />
            <mxPoint x="620" y="160" as="targetPoint" />
            <Array as="points">
              <mxPoint x="620" y="260" />
              <mxPoint x="650" y="260" />
              <mxPoint x="650" y="160" />
              <mxPoint x="622" y="160" />
            </Array>
          </mxGeometry>
        </mxCell>
        <mxCell id="ZvT5g0x1KcGBg2argGWD-0" value="" style="endArrow=classic;html=1;rounded=0;entryX=1;entryY=0.435;entryDx=0;entryDy=0;entryPerimeter=0;exitX=0;exitY=0.282;exitDx=0;exitDy=0;exitPerimeter=0;" edge="1" parent="WIyWlLk6GJQsqaUBKTNV-1">
          <mxGeometry width="50" height="50" relative="1" as="geometry">
            <mxPoint x="460" y="216.08799999999997" as="sourcePoint" />
            <mxPoint x="340" y="216.03999999999996" as="targetPoint" />
          </mxGeometry>
        </mxCell>
      </root>
    </mxGraphModel>
  </diagram>
</mxfile>
